# xmcd CD database file
#
# Track frame offsets:
#	150
#	17863
#	35720
#	53418
#	71648
#	332550
#
# Disc length: 4440 seconds
#
# Revision: 1
# Processed by: cddbd v1.5PL3 Copyright (c) Steve Scherf et al.
# Submitted via: CDex 1.51
#
DISCID=4c115606
DTITLE=PUFFY - SUNRISE
DYEAR=2004
DGENRE=Pop
TTITLE0=SUNRISE
TTITLE1=憂(UREI)
TTITLE2=SUNRISE-Instrumental-
TTITLE3=SUNRISE-TV edit-
TTITLE4=データ1
TTITLE5=データ2
EXTD=YEAR: 2004
EXTT0=
EXTT1=
EXTT2=
EXTT3=
EXTT4=
EXTT5=
PLAYORDER=
